# xmcd
#
# Track frame offsets:
#	150
#	13460
#	28026
#	42928
#	58571
#	73439
#	89605
#	104801
#	123195
#	143988
#
# Disc length: 2166 seconds
#
# Revision: 1
# Processed by: cddbd v1.5.1PL2 Copyright (c) Steve Scherf et al.
# Submitted via: audiograbber 1.83.01
#
DISCID=9a08740a
DTITLE=DENIS and OBULE - Denis and Obule
DYEAR=2004
DGENRE=Pop
TTITLE0=Tvoje oci zive
TTITLE1=Nula
TTITLE2=Rodjen sam
TTITLE3=Rekvijem
TTITLE4=Srece nema
TTITLE5=Savest se ne kupuje
TTITLE6=Bolje da se ne treznim
TTITLE7=Ko je crn
TTITLE8=Nostalgija
TTITLE9=Molitva
EXTD=
EXTT0=
EXTT1=
EXTT2=
EXTT3=
EXTT4=
EXTT5=
EXTT6=
EXTT7=
EXTT8=
EXTT9=
PLAYORDER=
